<mxfile host="app.diagrams.net" modified="2024-06-11T16:24:31.579Z" agent="Mozilla/5.0 (Windows NT 10.0; Win64; x64) AppleWebKit/537.36 (KHTML, like Gecko) Chrome/125.0.0.0 Safari/537.36" etag="Vi7YveHgY9vL6SOQ274x" version="24.5.3" type="device">
  <diagram id="PQn-5Fw6K4jAPKaVSkoZ" name="PÃ¡gina-1">
    <mxGraphModel dx="768" dy="385" grid="1" gridSize="10" guides="1" tooltips="1" connect="1" arrows="1" fold="1" page="1" pageScale="1" pageWidth="827" pageHeight="1169" math="0" shadow="0">
      <root>
        <mxCell id="0" />
        <mxCell id="1" parent="0" />
        <mxCell id="2B88kZ_RZcYbCxnPiZeE-21" style="edgeStyle=orthogonalEdgeStyle;rounded=0;orthogonalLoop=1;jettySize=auto;html=1;" parent="1" source="2B88kZ_RZcYbCxnPiZeE-5" target="2B88kZ_RZcYbCxnPiZeE-17" edge="1">
          <mxGeometry relative="1" as="geometry">
            <Array as="points">
              <mxPoint x="560" y="206" />
            </Array>
          </mxGeometry>
        </mxCell>
        <mxCell id="2B88kZ_RZcYbCxnPiZeE-5" value="Creating user" style="swimlane;fontStyle=1;align=center;verticalAlign=top;childLayout=stackLayout;horizontal=1;startSize=26;horizontalStack=0;resizeParent=1;resizeParentMax=0;resizeLast=0;collapsible=1;marginBottom=0;whiteSpace=wrap;html=1;" parent="1" vertex="1">
          <mxGeometry x="480" y="37" width="160" height="86" as="geometry" />
        </mxCell>
        <mxCell id="2B88kZ_RZcYbCxnPiZeE-6" value="User" style="text;strokeColor=none;fillColor=none;align=left;verticalAlign=top;spacingLeft=4;spacingRight=4;overflow=hidden;rotatable=0;points=[[0,0.5],[1,0.5]];portConstraint=eastwest;whiteSpace=wrap;html=1;" parent="2B88kZ_RZcYbCxnPiZeE-5" vertex="1">
          <mxGeometry y="26" width="160" height="26" as="geometry" />
        </mxCell>
        <mxCell id="2B88kZ_RZcYbCxnPiZeE-7" value="" style="line;strokeWidth=1;fillColor=none;align=left;verticalAlign=middle;spacingTop=-1;spacingLeft=3;spacingRight=3;rotatable=0;labelPosition=right;points=[];portConstraint=eastwest;strokeColor=inherit;" parent="2B88kZ_RZcYbCxnPiZeE-5" vertex="1">
          <mxGeometry y="52" width="160" height="8" as="geometry" />
        </mxCell>
        <mxCell id="2B88kZ_RZcYbCxnPiZeE-8" value="Register the user&amp;nbsp;" style="text;strokeColor=none;fillColor=none;align=left;verticalAlign=top;spacingLeft=4;spacingRight=4;overflow=hidden;rotatable=0;points=[[0,0.5],[1,0.5]];portConstraint=eastwest;whiteSpace=wrap;html=1;" parent="2B88kZ_RZcYbCxnPiZeE-5" vertex="1">
          <mxGeometry y="60" width="160" height="26" as="geometry" />
        </mxCell>
        <mxCell id="2B88kZ_RZcYbCxnPiZeE-16" style="edgeStyle=orthogonalEdgeStyle;rounded=0;orthogonalLoop=1;jettySize=auto;html=1;" parent="1" source="2B88kZ_RZcYbCxnPiZeE-9" target="2B88kZ_RZcYbCxnPiZeE-13" edge="1">
          <mxGeometry relative="1" as="geometry" />
        </mxCell>
        <mxCell id="2B88kZ_RZcYbCxnPiZeE-9" value="validating" style="swimlane;fontStyle=1;align=center;verticalAlign=top;childLayout=stackLayout;horizontal=1;startSize=40;horizontalStack=0;resizeParent=1;resizeParentMax=0;resizeLast=0;collapsible=1;marginBottom=0;whiteSpace=wrap;html=1;" parent="1" vertex="1">
          <mxGeometry x="120" y="20" width="160" height="120" as="geometry" />
        </mxCell>
        <mxCell id="2B88kZ_RZcYbCxnPiZeE-10" value="User" style="text;strokeColor=none;fillColor=none;align=left;verticalAlign=top;spacingLeft=4;spacingRight=4;overflow=hidden;rotatable=0;points=[[0,0.5],[1,0.5]];portConstraint=eastwest;whiteSpace=wrap;html=1;" parent="2B88kZ_RZcYbCxnPiZeE-9" vertex="1">
          <mxGeometry y="40" width="160" height="26" as="geometry" />
        </mxCell>
        <mxCell id="2B88kZ_RZcYbCxnPiZeE-11" value="" style="line;strokeWidth=1;fillColor=none;align=left;verticalAlign=middle;spacingTop=-1;spacingLeft=3;spacingRight=3;rotatable=0;labelPosition=right;points=[];portConstraint=eastwest;strokeColor=inherit;" parent="2B88kZ_RZcYbCxnPiZeE-9" vertex="1">
          <mxGeometry y="66" width="160" height="8" as="geometry" />
        </mxCell>
        <mxCell id="2B88kZ_RZcYbCxnPiZeE-12" value="validating the credentials entered by the user" style="text;strokeColor=none;fillColor=none;align=left;verticalAlign=top;spacingLeft=4;spacingRight=4;overflow=hidden;rotatable=0;points=[[0,0.5],[1,0.5]];portConstraint=eastwest;whiteSpace=wrap;html=1;" parent="2B88kZ_RZcYbCxnPiZeE-9" vertex="1">
          <mxGeometry y="74" width="160" height="46" as="geometry" />
        </mxCell>
        <mxCell id="2B88kZ_RZcYbCxnPiZeE-13" value="the user is registered" style="rhombus;whiteSpace=wrap;html=1;fontColor=#000000;fillColor=#ffffc0;strokeColor=#1B1D1E;" parent="1" vertex="1">
          <mxGeometry x="340" y="40" width="100" height="80" as="geometry" />
        </mxCell>
        <mxCell id="2B88kZ_RZcYbCxnPiZeE-14" value="no" style="edgeStyle=orthogonalEdgeStyle;html=1;align=left;verticalAlign=bottom;endArrow=open;endSize=8;strokeColor=#1B1D1E;rounded=0;" parent="1" source="2B88kZ_RZcYbCxnPiZeE-13" target="2B88kZ_RZcYbCxnPiZeE-5" edge="1">
          <mxGeometry x="-1" relative="1" as="geometry">
            <mxPoint x="414" y="290" as="targetPoint" />
          </mxGeometry>
        </mxCell>
        <mxCell id="2B88kZ_RZcYbCxnPiZeE-15" value="yes" style="edgeStyle=orthogonalEdgeStyle;html=1;align=left;verticalAlign=top;endArrow=open;endSize=8;strokeColor=#1B1D1E;rounded=0;" parent="1" source="2B88kZ_RZcYbCxnPiZeE-13" target="2B88kZ_RZcYbCxnPiZeE-17" edge="1">
          <mxGeometry x="-1" relative="1" as="geometry">
            <mxPoint x="274" y="370" as="targetPoint" />
          </mxGeometry>
        </mxCell>
        <mxCell id="2B88kZ_RZcYbCxnPiZeE-17" value="" style="ellipse;html=1;shape=endState;fillColor=#000000;strokeColor=#ff0000;" parent="1" vertex="1">
          <mxGeometry x="375" y="180" width="30" height="30" as="geometry" />
        </mxCell>
        <mxCell id="2B88kZ_RZcYbCxnPiZeE-18" value="" style="ellipse;html=1;shape=startState;fillColor=#000000;strokeColor=#ff0000;" parent="1" vertex="1">
          <mxGeometry x="60" y="65" width="30" height="30" as="geometry" />
        </mxCell>
        <mxCell id="2B88kZ_RZcYbCxnPiZeE-19" value="" style="edgeStyle=orthogonalEdgeStyle;html=1;verticalAlign=bottom;endArrow=open;endSize=8;strokeColor=#ff0000;rounded=0;" parent="1" source="2B88kZ_RZcYbCxnPiZeE-18" target="2B88kZ_RZcYbCxnPiZeE-9" edge="1">
          <mxGeometry relative="1" as="geometry">
            <mxPoint x="165" y="120" as="targetPoint" />
          </mxGeometry>
        </mxCell>
      </root>
    </mxGraphModel>
  </diagram>
</mxfile>
